<mxfile host="www.draw.io" modified="2020-02-22T12:28:32.332Z" agent="Mozilla/5.0 (Windows NT 10.0; Win64; x64) AppleWebKit/537.36 (KHTML, like Gecko) Chrome/80.0.3987.116 Safari/537.36" etag="Q2NlHDaoY8QZ4t5BLxfC" version="12.7.4" type="github">
  <diagram id="LxpRTbI_vGftXeCw770b" name="Page-1">
    <mxGraphModel dx="1926" dy="2275" grid="1" gridSize="10" guides="1" tooltips="1" connect="1" arrows="1" fold="1" page="1" pageScale="1" pageWidth="827" pageHeight="1169" math="0" shadow="0">
      <root>
        <mxCell id="0" />
        <mxCell id="1" parent="0" />
        <mxCell id="K3KziXwtVPjvpPmRGAO5-1" value="Cloud&#xa;Storage" style="html=1;fillColor=#5184F3;strokeColor=none;verticalAlign=top;labelPosition=center;verticalLabelPosition=bottom;align=center;spacingTop=-6;fontSize=11;fontStyle=1;fontColor=#999999;shape=mxgraph.gcp2.hexIcon;prIcon=cloud_storage" parent="1" vertex="1">
          <mxGeometry x="620" y="90" width="66" height="58.5" as="geometry" />
        </mxCell>
        <mxCell id="K3KziXwtVPjvpPmRGAO5-16" value="" style="edgeStyle=orthogonalEdgeStyle;rounded=0;orthogonalLoop=1;jettySize=auto;html=1;" parent="1" source="K3KziXwtVPjvpPmRGAO5-2" target="K3KziXwtVPjvpPmRGAO5-4" edge="1">
          <mxGeometry relative="1" as="geometry">
            <mxPoint x="225" y="200" as="targetPoint" />
          </mxGeometry>
        </mxCell>
        <mxCell id="K3KziXwtVPjvpPmRGAO5-2" value="" style="strokeColor=#dddddd;shadow=1;strokeWidth=1;rounded=1;absoluteArcSize=1;arcSize=2;" parent="1" vertex="1">
          <mxGeometry x="50" y="90" width="110" height="60" as="geometry" />
        </mxCell>
        <mxCell id="K3KziXwtVPjvpPmRGAO5-3" value="Compute&#xa;Engine" style="dashed=0;connectable=0;html=1;fillColor=#5184F3;strokeColor=none;shape=mxgraph.gcp2.hexIcon;prIcon=compute_engine;part=1;labelPosition=right;verticalLabelPosition=middle;align=left;verticalAlign=middle;spacingLeft=5;fontColor=#999999;fontSize=12;" parent="K3KziXwtVPjvpPmRGAO5-2" vertex="1">
          <mxGeometry y="0.5" width="44" height="39" relative="1" as="geometry">
            <mxPoint x="5" y="-19.5" as="offset" />
          </mxGeometry>
        </mxCell>
        <mxCell id="K3KziXwtVPjvpPmRGAO5-18" value="" style="edgeStyle=orthogonalEdgeStyle;rounded=0;orthogonalLoop=1;jettySize=auto;html=1;" parent="1" source="K3KziXwtVPjvpPmRGAO5-4" edge="1">
          <mxGeometry relative="1" as="geometry">
            <mxPoint x="426" y="119.25" as="targetPoint" />
          </mxGeometry>
        </mxCell>
        <mxCell id="K3KziXwtVPjvpPmRGAO5-4" value="Cloud&#xa;Pub/Sub" style="html=1;fillColor=#5184F3;strokeColor=none;verticalAlign=top;labelPosition=center;verticalLabelPosition=bottom;align=center;spacingTop=-6;fontSize=11;fontStyle=1;fontColor=#999999;shape=mxgraph.gcp2.hexIcon;prIcon=cloud_pubsub" parent="1" vertex="1">
          <mxGeometry x="280" y="90" width="66" height="58.5" as="geometry" />
        </mxCell>
        <mxCell id="K3KziXwtVPjvpPmRGAO5-19" style="edgeStyle=orthogonalEdgeStyle;rounded=0;orthogonalLoop=1;jettySize=auto;html=1;" parent="1" source="K3KziXwtVPjvpPmRGAO5-7" edge="1">
          <mxGeometry relative="1" as="geometry">
            <mxPoint x="430" y="120.75" as="targetPoint" />
          </mxGeometry>
        </mxCell>
        <mxCell id="K3KziXwtVPjvpPmRGAO5-7" value="Cloud&#xa;Dataflow" style="html=1;fillColor=#5184F3;strokeColor=none;verticalAlign=top;labelPosition=center;verticalLabelPosition=bottom;align=center;spacingTop=-6;fontSize=11;fontStyle=1;fontColor=#999999;shape=mxgraph.gcp2.hexIcon;prIcon=cloud_dataflow" parent="1" vertex="1">
          <mxGeometry x="440" y="91.5" width="66" height="58.5" as="geometry" />
        </mxCell>
        <mxCell id="K3KziXwtVPjvpPmRGAO5-11" value="" style="strokeColor=#dddddd;shadow=1;strokeWidth=1;rounded=1;absoluteArcSize=1;arcSize=2;" parent="1" vertex="1">
          <mxGeometry x="60" y="370" width="150" height="60" as="geometry" />
        </mxCell>
        <mxCell id="K3KziXwtVPjvpPmRGAO5-12" value="&lt;font color=&quot;#000000&quot;&gt;Name&lt;/font&gt;&lt;br&gt;Cloud Functions" style="dashed=0;connectable=0;html=1;fillColor=#5184F3;strokeColor=none;shape=mxgraph.gcp2.hexIcon;prIcon=cloud_functions;part=1;labelPosition=right;verticalLabelPosition=middle;align=left;verticalAlign=middle;spacingLeft=5;fontColor=#999999;fontSize=12;" parent="K3KziXwtVPjvpPmRGAO5-11" vertex="1">
          <mxGeometry y="0.5" width="44" height="39" relative="1" as="geometry">
            <mxPoint x="5" y="-19.5" as="offset" />
          </mxGeometry>
        </mxCell>
        <mxCell id="K3KziXwtVPjvpPmRGAO5-13" value="Cloud&#xa;Storage" style="html=1;fillColor=#5184F3;strokeColor=none;verticalAlign=top;labelPosition=center;verticalLabelPosition=bottom;align=center;spacingTop=-6;fontSize=11;fontStyle=1;fontColor=#999999;shape=mxgraph.gcp2.hexIcon;prIcon=cloud_storage" parent="1" vertex="1">
          <mxGeometry x="280" y="370" width="66" height="58.5" as="geometry" />
        </mxCell>
        <mxCell id="K3KziXwtVPjvpPmRGAO5-20" value="" style="edgeStyle=orthogonalEdgeStyle;rounded=0;orthogonalLoop=1;jettySize=auto;html=1;" parent="1" edge="1">
          <mxGeometry relative="1" as="geometry">
            <mxPoint x="520" y="120.29999999999995" as="sourcePoint" />
            <mxPoint x="600" y="120.25" as="targetPoint" />
          </mxGeometry>
        </mxCell>
        <mxCell id="39EYCP6WX5PyhMCqxIh9-1" value="&lt;p align=&quot;center&quot; style=&quot;margin-bottom: 0cm ; line-height: 100% ; font-size: 28px&quot;&gt;&lt;br&gt;&lt;span&gt;&lt;font color=&quot;#000000&quot; style=&quot;font-size: 28px&quot;&gt;&lt;font face=&quot;Helvetica&quot; style=&quot;font-size: 28px&quot;&gt;&lt;font style=&quot;font-size: 28px&quot;&gt;Data&amp;nbsp;&lt;/font&gt;&lt;/font&gt;&lt;/font&gt;&lt;/span&gt;&lt;span&gt;&lt;font color=&quot;#000000&quot; style=&quot;font-size: 28px&quot;&gt;&lt;font face=&quot;Helvetica&quot; style=&quot;font-size: 28px&quot;&gt;&lt;font style=&quot;font-size: 28px&quot;&gt;Ingestion&amp;nbsp;&lt;/font&gt;&lt;/font&gt;&lt;/font&gt;&lt;/span&gt;&lt;span&gt;&lt;font color=&quot;#000000&quot; style=&quot;font-size: 28px&quot;&gt;&lt;font face=&quot;Helvetica&quot; style=&quot;font-size: 28px&quot;&gt;&lt;font style=&quot;font-size: 28px&quot;&gt;from Twitter to Raw Data Storage&lt;/font&gt;&lt;/font&gt;&lt;/font&gt;&lt;/span&gt;&lt;br&gt;&lt;/p&gt;" style="text;html=1;resizable=0;autosize=1;align=center;verticalAlign=middle;points=[];fillColor=none;strokeColor=none;rounded=0;textDirection=ltr;" vertex="1" parent="1">
          <mxGeometry x="60" y="-20" width="620" height="90" as="geometry" />
        </mxCell>
        <mxCell id="39EYCP6WX5PyhMCqxIh9-4" value="&lt;p align=&quot;center&quot; style=&quot;margin-bottom: 0cm ; line-height: 100% ; font-size: 28px&quot;&gt;Data Cleaning and Storage&lt;/p&gt;" style="text;html=1;resizable=0;autosize=1;align=center;verticalAlign=middle;points=[];fillColor=none;strokeColor=none;rounded=0;textDirection=ltr;" vertex="1" parent="1">
          <mxGeometry x="185" y="265" width="350" height="60" as="geometry" />
        </mxCell>
      </root>
    </mxGraphModel>
  </diagram>
</mxfile>
